<svg width="21" height="13" viewBox="0 0 21 13" fill="none" xmlns="http://www.w3.org/2000/svg">
<path d="M10.5 0.876953C6.48773 0.876953 2.84919 2.98128 0.164314 6.39926C-0.0547714 6.67929 -0.0547714 7.0705 0.164314 7.35053C2.84919 10.7726 6.48773 12.877 10.5 12.877C14.5123 12.877 18.1508 10.7726 20.8357 7.35465C21.0548 7.07462 21.0548 6.68341 20.8357 6.40338C18.1508 2.98128 14.5123 0.876953 10.5 0.876953ZM10.7878 11.1021C8.12442 11.2627 5.92498 9.15835 6.09251 6.60104C6.22998 4.4926 8.01273 2.78361 10.2122 2.65183C12.8756 2.49123 15.075 4.59555 14.9075 7.15286C14.7657 9.25719 12.983 10.9662 10.7878 11.1021ZM10.6546 9.15012C9.21985 9.2366 8.03421 8.10413 8.12872 6.7287C8.20175 5.59212 9.16401 4.6738 10.3496 4.59967C11.7844 4.51319 12.9701 5.64566 12.8756 7.02109C12.7983 8.16179 11.836 9.08011 10.6546 9.15012Z" fill="#7B7B7B"/>
</svg>
