<svg width="32" height="32" viewBox="0 0 32 32" fill="none" xmlns="http://www.w3.org/2000/svg">
<g clip-path="url(#clip0)">
<path opacity="0.3" d="M13.0683 16.0262L0.608122 3.56561C-0.202763 2.75511 -0.202763 1.44463 0.608122 0.634125C1.41863 -0.176381 2.72911 -0.176381 3.53962 0.634125L16.0002 13.0947L28.4603 0.634125C29.2712 -0.176381 30.5813 -0.176381 31.3918 0.634125C32.2027 1.44463 32.2027 2.75511 31.3918 3.56561L18.9317 16.0262L31.3918 28.4867C32.2027 29.2972 32.2027 30.6077 31.3918 31.4182C30.9879 31.8225 30.4568 32.0256 29.9261 32.0256C29.3954 32.0256 28.8646 31.8225 28.4603 31.4182L16.0002 18.9576L3.53962 31.4182C3.13531 31.8225 2.60459 32.0256 2.07387 32.0256C1.54315 32.0256 1.01243 31.8225 0.608122 31.4182C-0.202763 30.6077 -0.202763 29.2972 0.608122 28.4867L13.0683 16.0262Z" fill="white"/>
</g>
<defs>
<clipPath id="clip0">
<rect width="32" height="32" fill="white" transform="matrix(-1 0 0 1 32 0)"/>
</clipPath>
</defs>
</svg>
