<svg width="9" height="18" viewBox="0 0 9 18" fill="none" xmlns="http://www.w3.org/2000/svg">
<path d="M8.66109 0.0037452L6.5024 0C4.07718 0 2.5099 1.73871 2.5099 4.42982V6.47227H0.339433C0.151879 6.47227 0 6.63668 0 6.83949V9.79876C0 10.0016 0.152052 10.1658 0.339433 10.1658H2.5099V17.633C2.5099 17.8358 2.66178 18 2.84933 18H5.68118C5.86873 18 6.02061 17.8356 6.02061 17.633V10.1658H8.55839C8.74595 10.1658 8.89782 10.0016 8.89782 9.79876L8.89886 6.83949C8.89886 6.74211 8.86302 6.64886 8.79946 6.57994C8.7359 6.51103 8.64931 6.47227 8.55926 6.47227H6.02061V4.74086C6.02061 3.90868 6.20401 3.48622 7.20655 3.48622L8.66074 3.48566C8.84812 3.48566 9 3.32124 9 3.11863V0.370775C9 0.168347 8.8483 0.00411972 8.66109 0.0037452Z" fill="#95AEC2"/>
</svg>
