<svg width="15" height="16" viewBox="0 0 15 16" fill="none" xmlns="http://www.w3.org/2000/svg">
<path fill-rule="evenodd" clip-rule="evenodd" d="M11.8154 6.99999C11.8154 9.76142 9.61124 12 6.8923 12C4.17336 12 1.96923 9.76142 1.96923 6.99999C1.96923 4.23857 4.17336 2 6.8923 2C9.61124 2 11.8154 4.23857 11.8154 6.99999ZM10.6439 12.8731C9.56432 13.5859 8.27592 14 6.8923 14C3.08579 14 0 10.866 0 6.99999C0 3.134 3.08579 0 6.8923 0C10.6988 0 13.7846 3.134 13.7846 6.99999C13.7846 8.73972 13.1597 10.3312 12.1254 11.5556L14.5256 14.3415C14.8837 14.7571 14.8422 15.3889 14.433 15.7526C14.0237 16.1162 13.4017 16.0741 13.0436 15.6585L10.6439 12.8731Z" fill="#95AEC2"/>
</svg>
