<svg width="14" height="18" viewBox="0 0 14 18" fill="none" xmlns="http://www.w3.org/2000/svg">
<path fill-rule="evenodd" clip-rule="evenodd" d="M13.375 17.5V7.9375H11.25V4.83301C11.2445 4.23535 11.1366 3.67367 10.9263 3.14795C10.716 2.62223 10.4172 2.16292 10.0298 1.77002C9.64242 1.37712 9.19141 1.06722 8.67676 0.840332C8.16211 0.613444 7.60319 0.5 7 0.5C6.39128 0.5 5.82959 0.613444 5.31494 0.840332C4.80029 1.06722 4.35205 1.37712 3.97021 1.77002C3.58838 2.16292 3.28955 2.62223 3.07373 3.14795C2.85791 3.67367 2.75 4.23535 2.75 4.83301V7.9375H0.625V17.5H13.375ZM10.1875 4.83301V7.9375H3.8125V4.83301C3.8125 4.37923 3.89274 3.95589 4.05322 3.56299C4.2137 3.17008 4.43783 2.82422 4.72559 2.52539C5.01335 2.22656 5.35091 1.99137 5.73828 1.81982C6.12565 1.64827 6.54622 1.5625 7 1.5625C7.45378 1.56803 7.87712 1.65381 8.27002 1.81982C8.66292 1.98584 9.00049 2.22103 9.28271 2.52539C9.56494 2.82975 9.7863 3.17839 9.94678 3.57129C10.1073 3.96419 10.1875 4.38477 10.1875 4.83301ZM8.5 11C8.5 11.5992 8.14863 12.1164 7.64069 12.3567L8.0645 14.9845H5.88806L6.34845 12.3515C5.84636 12.109 5.5 11.5949 5.5 11C5.5 10.1716 6.17157 9.5 7 9.5C7.82843 9.5 8.5 10.1716 8.5 11Z" fill="#95AEC2"/>
</svg>
