<svg width="394" height="72" viewBox="0 0 394 72" fill="none" xmlns="http://www.w3.org/2000/svg">
<path d="M35.1522 54.187C29.8701 53.4204 21.7088 50.9864 21.9878 42.4291C22.2676 33.8616 29.6366 24.307 35.1522 17.1186V0.407227C13.7427 0.826654 -1.08767 18.3521 0.0625351 37.2168C1.24135 56.5628 15.8306 70.0489 35.1522 71.1323V54.187Z" fill="#0060AE"/>
<path d="M48.5508 42.5595C48.2683 33.8922 40.6271 24.202 35.1523 17.0532V54.2116C40.3348 53.5257 48.8336 51.2251 48.5508 42.5595Z" fill="#0060AE"/>
<path d="M37.3223 0.199707V2.55783C54.6906 3.59303 68.5056 18.0595 68.5056 35.6997C68.5056 53.3399 54.6906 67.8064 37.3223 68.8416V71.1997C55.9874 70.1634 70.8561 54.6386 70.8561 35.6997C70.8561 16.7614 55.9874 1.2371 37.3223 0.199707Z" fill="#0060AE"/>
<path d="M97.1096 31.9418L99.1087 24.4752C99.1087 24.4752 99.8266 20.843 96.1152 20.843H89.8673C87.0283 20.843 85.1651 24.3822 85.1651 24.3822L79.1735 46.7665C79.1735 46.7665 78.4723 51.0669 81.7418 51.0669H88.1303C91.3646 51.0669 93.097 46.9345 93.097 46.9345L95.4895 37.9959H89.7403L87.5421 46.2072H85.0722L90.5617 25.7005H93.031L91.361 31.9418H97.1096ZM125.146 20.843H131.083L130.126 29.0129L133.648 20.843H139.586L131.993 35.1747L131.779 51.0669H125.84L126.889 41.3677L122.678 51.0669H116.749L125.066 35.1747L125.146 20.843ZM156.213 51.0669H161.961L165.54 37.6973H168.012L164.433 51.0669H170.182L178.272 20.843H172.523L169.312 32.839H166.841L170.052 20.843H164.303L156.213 51.0669ZM184 20.843H194.069L192.768 25.7005H188.449L186.538 32.839H190.858L189.557 37.6973H185.238L182.96 46.2072H187.279L185.979 51.0669H175.91L184 20.843ZM217.19 35.7562L217.501 34.5936C217.501 34.5936 219.69 25.5969 216.044 25.5969H211.689L212.961 20.843H207.212L205.939 25.5969H201.443C197.919 25.5969 195.133 35.2576 195.133 35.2576L194.844 36.3368C194.844 36.3368 192.377 46.4325 195.585 46.4325H200.362L199.121 51.0669H204.871L206.111 46.4325H210.678C214.082 46.4325 217.19 35.7562 217.19 35.7562ZM201.662 41.5739H199.193L202.161 30.4833H204.631L201.662 41.5739ZM209.883 41.5739H207.413L210.382 30.4833H212.852L209.883 41.5739ZM243.774 20.843H253.843L252.543 25.7005H248.223L246.312 32.839H250.632L249.332 37.6973H245.011L242.734 46.2072H247.054L245.753 51.0669H235.683L243.774 20.843ZM250.676 51.0669H256.425L263.215 25.7005H267.534L268.834 20.843H258.766L250.676 51.0669ZM290.36 29.7088L291.766 24.4567C291.766 24.4567 292.965 20.843 296.629 20.843H302.841C306.295 20.843 305.732 24.4654 305.732 24.4654L303.635 32.299C302.961 34.8183 300.083 34.0135 299.742 35.289C299.4 36.5653 302.816 35.3569 302.191 37.694L299.696 47.0166C299.696 47.0166 298.334 51.0669 294.751 51.0669H288.539C285.027 51.0669 285.75 46.9313 285.75 46.9313L287.399 40.7718H293.148L291.693 46.2072H294.163L296.441 37.6973H292.24L293.54 32.839H297.741L299.652 25.7005H297.182L296.109 29.7088H290.36ZM335.088 31.987L336.77 25.7022H343.802L345.103 20.843H332.322L324.231 51.0669H334.34C337.561 51.0669 340.693 41.759 340.693 41.759L341.127 40.1367C341.127 40.1367 342.989 31.987 339.514 31.987H335.088ZM333.787 36.8467H336.257L333.751 46.2072H331.281L333.787 36.8467ZM368.15 20.843H373.899L365.809 51.0669H360.059L368.15 20.843ZM359.934 42.0159L360.328 40.543C360.328 40.543 362.216 32.0015 358.75 32.0015H354.394L357.381 20.843H351.632L343.542 51.0658H353.616C357.091 51.0658 359.934 42.0159 359.934 42.0159ZM353.063 46.2072H350.593L353.095 36.8598H355.565L353.063 46.2072ZM380.05 20.843H394L392.699 25.7005H388.264L381.474 51.0669H375.749L382.539 25.7005H378.749L380.05 20.843ZM323.553 31.9418L325.552 24.4752C325.552 24.4752 326.268 20.843 322.557 20.843H316.309C313.47 20.843 311.607 24.3822 311.607 24.3822L305.615 46.7665C305.615 46.7665 304.914 51.0669 308.184 51.0669H314.572C317.808 51.0669 319.54 46.9345 319.54 46.9345L321.933 37.9959H316.183L313.984 46.2072H311.514L317.003 25.7005H319.473L317.802 31.9418H323.553ZM273.396 51.0669L274.717 46.1325H272.246L270.925 51.0669H265.175L272.273 24.5524C272.273 24.5524 273.266 20.843 277.161 20.843H287.235L279.145 51.0669H273.396ZM280.185 25.7022H277.715L273.548 41.2728H276.017L280.185 25.7022ZM111.758 51.0669L119.848 20.843H109.776C105.878 20.843 104.887 24.5524 104.887 24.5524L97.7899 51.0669H103.539L104.86 46.1325H107.33L106.009 51.0669H111.758ZM108.63 41.2728H106.161L110.329 25.7022H112.798L108.63 41.2728ZM144.615 51.0669L145.935 46.1325H143.465L142.144 51.0669H136.396L143.493 24.5524C143.493 24.5524 144.484 20.843 148.381 20.843H158.454L150.364 51.0669H144.615ZM151.404 25.7022H148.934L144.767 41.2728H147.236L151.404 25.7022ZM223.708 25.958H227.496L220.706 51.323H226.433L233.222 25.958H237.656L238.957 21.0983H225.009L223.708 25.958Z" fill="#0060AE"/>
</svg>
