<svg width="321" height="58" viewBox="0 0 321 58" fill="none" xmlns="http://www.w3.org/2000/svg">
<path d="M28.6393 44.1021C24.3358 43.4759 17.6867 41.4876 17.9139 34.4971C18.1419 27.4983 24.1456 19.6931 28.6393 13.8209V0.169395C11.1964 0.512027 -0.886148 14.8286 0.0509486 30.2392C1.01135 46.043 12.8975 57.0597 28.6393 57.9448V44.1021Z" fill="#0060AE"/>
<path d="M39.5558 34.6037C39.3256 27.5234 33.1002 19.6075 28.6398 13.7676V44.1223C32.862 43.562 39.7862 41.6827 39.5558 34.6037Z" fill="#0060AE"/>
<path d="M30.4072 0V1.92635C44.5576 2.77201 55.8129 14.5897 55.8129 29C55.8129 43.4103 44.5576 55.228 30.4072 56.0737V58C45.6141 57.1535 57.728 44.4712 57.728 29C57.728 13.5292 45.6141 0.847444 30.4072 0Z" fill="#0060AE"/>
<path d="M79.1173 25.9301L80.746 19.8306C80.746 19.8306 81.3308 16.8635 78.3071 16.8635H73.2168C70.9038 16.8635 69.3858 19.7547 69.3858 19.7547L64.5044 38.0404C64.5044 38.0404 63.9331 41.5534 66.5967 41.5534H71.8016C74.4367 41.5534 75.8481 38.1777 75.8481 38.1777L77.7973 30.8757H73.1134L71.3224 37.5835H69.3101L73.7826 20.8316H75.7944L74.4338 25.9301H79.1173ZM101.959 16.8635H106.796L106.016 23.5374L108.885 16.8635H113.724L107.537 28.5711L107.364 41.5534H102.524L103.379 33.6301L99.9485 41.5534H95.1178L101.894 28.5711L101.959 16.8635ZM127.27 41.5534H131.953L134.869 30.6318H136.883L133.967 41.5534H138.651L145.242 16.8635H140.558L137.942 26.663H135.929L138.545 16.8635H133.861L127.27 41.5534ZM149.909 16.8635H158.112L157.052 20.8316H153.534L151.977 26.663H155.496L154.436 30.6318H150.917L149.061 37.5835H152.58L151.521 41.5534H143.317L149.909 16.8635ZM176.949 29.046L177.203 28.0963C177.203 28.0963 178.986 20.7469 176.016 20.7469H172.467L173.504 16.8635H168.82L167.783 20.7469H164.12C161.249 20.7469 158.979 28.6388 158.979 28.6388L158.744 29.5203C158.744 29.5203 156.734 37.7675 159.347 37.7675H163.239L162.229 41.5534H166.912L167.923 37.7675H171.644C174.417 37.7675 176.949 29.046 176.949 29.046ZM164.299 33.7985H162.287L164.705 24.7386H166.717L164.299 33.7985ZM170.996 33.7985H168.984L171.402 24.7386H173.415L170.996 33.7985ZM198.608 16.8635H206.811L205.752 20.8316H202.232L200.676 26.663H204.195L203.136 30.6318H199.616L197.76 37.5835H201.28L200.22 41.5534H192.016L198.608 16.8635ZM204.231 41.5534H208.915L214.447 20.8316H217.966L219.025 16.8635H210.822L204.231 41.5534ZM236.563 24.106L237.708 19.8155C237.708 19.8155 238.684 16.8635 241.67 16.8635H246.731C249.545 16.8635 249.086 19.8226 249.086 19.8226L247.378 26.2219C246.828 28.2799 244.484 27.6225 244.206 28.6644C243.927 29.707 246.711 28.7199 246.201 30.6291L244.169 38.2447C244.169 38.2447 243.059 41.5534 240.14 41.5534H235.079C232.217 41.5534 232.807 38.175 232.807 38.175L234.15 33.1434H238.834L237.648 37.5835H239.661L241.517 30.6318H238.094L239.153 26.663H242.576L244.133 20.8316H242.121L241.247 24.106H236.563ZM273.003 25.967L274.374 20.8329H280.103L281.163 16.8635H270.749L264.158 41.5534H272.394C275.018 41.5534 277.57 33.9498 277.57 33.9498L277.924 32.6245C277.924 32.6245 279.44 25.967 276.609 25.967H273.003ZM271.943 29.9369H273.956L271.914 37.5835H269.902L271.943 29.9369ZM299.939 16.8635H304.623L298.032 41.5534H293.348L299.939 16.8635ZM293.246 34.1597L293.567 32.9564C293.567 32.9564 295.105 25.9788 292.281 25.9788H288.732L291.166 16.8635H286.482L279.891 41.5525H288.098C290.93 41.5525 293.246 34.1597 293.246 34.1597ZM287.648 37.5835H285.636L287.674 29.9476H289.686L287.648 37.5835ZM309.635 16.8635H321L319.94 20.8316H316.327L310.795 41.5534H306.131L311.663 20.8316H308.575L309.635 16.8635ZM263.606 25.9301L265.234 19.8306C265.234 19.8306 265.818 16.8635 262.794 16.8635H257.704C255.391 16.8635 253.873 19.7547 253.873 19.7547L248.991 38.0404C248.991 38.0404 248.42 41.5534 251.084 41.5534H256.289C258.925 41.5534 260.336 38.1777 260.336 38.1777L262.286 30.8757H257.601L255.81 37.5835H253.797L258.269 20.8316H260.281L258.92 25.9301H263.606ZM222.741 41.5534L223.818 37.5225H221.804L220.728 41.5534H216.044L221.826 19.8937C221.826 19.8937 222.636 16.8635 225.809 16.8635H234.017L227.425 41.5534H222.741ZM228.273 20.8329H226.261L222.865 33.5526H224.877L228.273 20.8329ZM91.0516 41.5534L97.643 16.8635H89.4366C86.2613 16.8635 85.4534 19.8937 85.4534 19.8937L79.6715 41.5534H84.3554L85.4314 37.5225H87.4439L86.3677 41.5534H91.0516ZM88.5035 33.5526H86.4913L89.887 20.8329H91.899L88.5035 33.5526ZM117.821 41.5534L118.897 37.5225H116.884L115.808 41.5534H111.124L116.907 19.8937C116.907 19.8937 117.714 16.8635 120.889 16.8635H129.096L122.504 41.5534H117.821ZM123.352 20.8329H121.34L117.944 33.5526H119.956L123.352 20.8329ZM182.26 21.0419H185.346L179.814 41.7626H184.48L190.011 21.0419H193.624L194.683 17.072H183.32L182.26 21.0419Z" fill="#0060AE"/>
</svg>
