<svg width="18" height="18" viewBox="0 0 18 18" fill="none" xmlns="http://www.w3.org/2000/svg">
<path d="M17.9914 14.2055C18.0296 14.4979 17.9405 14.7521 17.7246 14.9682L15.1903 17.485C15.076 17.6122 14.9267 17.7203 14.7425 17.8092C14.5583 17.8982 14.3773 17.9554 14.1995 17.9808C14.1868 17.9808 14.1486 17.9841 14.0851 17.9904C14.0216 17.9968 13.9391 18 13.8374 18C13.596 18 13.2054 17.9587 12.6655 17.876C12.1256 17.7934 11.465 17.59 10.6838 17.2659C9.9024 16.9417 9.01635 16.4554 8.02551 15.8072C7.03466 15.159 5.98023 14.2691 4.86232 13.1377C3.97307 12.2606 3.23626 11.4216 2.6519 10.6208C2.06754 9.8199 1.5975 9.07943 1.2418 8.39935C0.886073 7.71927 0.619299 7.10274 0.441449 6.54978C0.263599 5.99681 0.142915 5.52012 0.0793973 5.11969C0.0158795 4.71927 -0.00952767 4.40465 0.00317589 4.17584C0.0158795 3.94703 0.0222312 3.81991 0.0222312 3.79448C0.0476384 3.61652 0.104804 3.43538 0.193729 3.25105C0.282654 3.06673 0.390635 2.91737 0.51767 2.80296L3.05203 0.266949C3.22988 0.0889829 3.43314 0 3.6618 0C3.82695 0 3.97304 0.0476694 4.10007 0.143008C4.22711 0.238347 4.33509 0.355932 4.42402 0.495762L6.46294 4.36652C6.57727 4.56991 6.60903 4.79236 6.55821 5.03389C6.5074 5.27541 6.39942 5.4788 6.23427 5.64406L5.30056 6.57838C5.27515 6.6038 5.25292 6.64512 5.23387 6.70232C5.21481 6.75952 5.20528 6.80719 5.20528 6.84533C5.2561 7.11228 5.37043 7.41736 5.54828 7.76058C5.70072 8.06566 5.93574 8.43749 6.25333 8.87604C6.57092 9.3146 7.02189 9.81987 7.60626 10.3919C8.17792 10.9767 8.68606 11.4311 9.13068 11.7553C9.57522 12.0793 9.94692 12.3178 10.2455 12.4703C10.544 12.6229 10.7727 12.715 10.9314 12.7467L11.1695 12.7944C11.195 12.7944 11.2363 12.7848 11.2934 12.7658C11.3506 12.7467 11.3919 12.7245 11.4173 12.699L12.5034 11.5931C12.7322 11.3897 12.9989 11.2881 13.3038 11.2881C13.5198 11.2881 13.6912 11.3262 13.8183 11.4025H13.8373L17.5149 13.5762C17.7818 13.7416 17.9406 13.9512 17.9914 14.2055Z" fill="#828282"/>
</svg>
