<svg width="14" height="16" viewBox="0 0 14 16" fill="none" xmlns="http://www.w3.org/2000/svg">
<path fill-rule="evenodd" clip-rule="evenodd" d="M11.2 7.54736C11.2 10.1362 9.11065 12.2349 6.53333 12.2349C3.956 12.2349 1.86667 10.1362 1.86667 7.54736C1.86667 4.95853 3.956 2.85986 6.53333 2.85986C9.11065 2.85986 11.2 4.95853 11.2 7.54736ZM10.0895 13.0534C9.06617 13.7217 7.84488 14.1099 6.53333 14.1099C2.92507 14.1099 0 11.1717 0 7.54736C0 3.92299 2.92507 0.984863 6.53333 0.984863C10.1416 0.984863 13.0667 3.92299 13.0667 7.54736C13.0667 9.17835 12.4743 10.6704 11.4939 11.8182L13.7691 14.43C14.1085 14.8197 14.0692 15.4119 13.6813 15.7529C13.2933 16.0938 12.7037 16.0544 12.3643 15.6647L10.0895 13.0534Z" fill="#828282"/>
</svg>
