<svg width="53" height="53" viewBox="0 0 53 53" fill="none" xmlns="http://www.w3.org/2000/svg">
<path opacity="0.8" fill-rule="evenodd" clip-rule="evenodd" d="M6 21.8958C6 13.0962 13.0761 6 21.7592 6C30.4424 6 37.5185 13.0962 37.5185 21.8958C37.5185 30.6954 30.4424 37.7916 21.7592 37.7916C13.0761 37.7916 6 30.6954 6 21.8958ZM21.7592 0C9.72147 0 0 9.82364 0 21.8958C0 33.968 9.72147 43.7916 21.7592 43.7916C26.6231 43.7916 31.1088 42.1879 34.7279 39.48L47.4665 52.3115C47.8556 52.7035 48.4865 52.7035 48.8756 52.3115L52.2901 48.8722C52.6792 48.4802 52.6792 47.8448 52.2901 47.4528L39.5026 34.5722C42.0323 30.9923 43.5185 26.6159 43.5185 21.8958C43.5185 9.82364 33.797 0 21.7592 0Z" fill="#545D73"/>
</svg>
